<?xml version="1.0" encoding="UTF-8"?><svg xmlns="http://www.w3.org/2000/svg" viewBox="0 0 208.86 67.57"><defs><style>.e{fill:#41ad55;}</style></defs><g id="a"/><g id="b"><g id="c"><g id="d"><g><path class="e" d="M29.46,15.36H.53v9.21H19.39c1.17,0,2.11,.95,2.11,2.11v16.32h-4.03c-1.17,0-2.11-.95-2.11-2.11v-11.71H7.39c-4.08,0-7.39,3.31-7.39,7.39v8.25c0,4.08,3.31,7.39,7.39,7.39h29.46V22.75c0-4.08-3.31-7.39-7.39-7.39"/><path class="e" d="M64.5,43h-4.03c-1.17,0-2.11-.95-2.11-2.11V15.36h-7.96c-4.08,0-7.39,3.31-7.39,7.39v22.07c0,4.08,3.31,7.39,7.39,7.39h29.46V0h-15.36V43Z"/><path class="e" d="M107.5,43h-4.03c-1.17,0-2.11-.95-2.11-2.11V15.36h-15.36v29.46c0,4.08,3.31,7.39,7.39,7.39h14.11v4.61h-20.97v10.75h28.94c4.08,0,7.39-3.31,7.39-7.39V15.36h-15.36v27.64Z"/><path class="e" d="M158.46,15.36h-29.46v29.46c0,4.08,3.31,7.39,7.39,7.39h28.94v-9.21h-18.86c-1.17,0-2.11-.95-2.11-2.11V24.57h4.03c1.17,0,2.11,.95,2.11,2.11v11.71h7.96c4.08,0,7.39-3.31,7.39-7.39v-8.25c0-4.08-3.31-7.39-7.39-7.39"/><path class="e" d="M201.46,15.36h-29.46V52.21h15.36V24.57h4.03c1.16,0,2.11,.95,2.11,2.11v25.53h15.36V22.75c0-4.08-3.31-7.39-7.39-7.39"/></g></g></g></g></svg>