<?xml version="1.0" encoding="utf-8"?>
<!-- Generator: Adobe Illustrator 26.1.0, SVG Export Plug-In . SVG Version: 6.00 Build 0)  -->
<svg version="1.1" id="Camada_1" xmlns="http://www.w3.org/2000/svg" xmlns:xlink="http://www.w3.org/1999/xlink" x="0px" y="0px"
	 viewBox="0 0 1920 1080" style="enable-background:new 0 0 1920 1080;" xml:space="preserve">
<style type="text/css">
	.st0{fill:#F3F6F9;}
	.st1{fill:#12172A;}
	.st2{fill:#43AE56;}
	.st3{opacity:0.2;fill:#020203;enable-background:new    ;}
</style>
<g id="Tela_1">
	<g id="BG">
		<rect class="st0" width="1920" height="1080"/>
	</g>
	<g id="CASA_ADYEN_LOGO">
		<path class="st1" d="M756.23,97.21c13.16,0,20.29,7.4,21.29,16.63h-11.61c-0.64-4.02-3.66-7.68-9.69-7.68
			c-6.58,0-11.06,5.94-11.06,14.44s4.48,14.44,11.06,14.44c6.12,0,8.96-3.66,9.69-7.68h11.61c-1,9.23-7.95,16.63-21.29,16.63
			c-14.26,0-23.21-8.5-23.21-23.39C733.02,105.98,742.52,97.21,756.23,97.21z"/>
		<path class="st1" d="M800,117.77l8.59-1.28c4.75-0.73,5.67-1.46,5.67-3.56c-0.09-4.39-2.47-7.49-7.95-7.49s-8.41,2.83-8.77,7.31
			h-10.97c0.64-9.96,8.68-15.54,19.74-15.54c13.16,0,19.74,5.67,19.74,16.27v29.43H814.8v-5.3h-0.55c-2.65,4.02-7.58,6.4-14.26,6.4
			c-9.96,0-15.17-5.12-15.17-12.61C784.83,123.9,789.4,119.42,800,117.77z M814.25,124.9v-3.93c-0.82,1.19-2.38,1.74-4.39,2.1
			l-6.85,1.1c-4.75,0.82-6.58,2.92-6.58,6.03c0,3.47,2.38,5.57,6.95,5.57C808.95,135.78,814.25,132.39,814.25,124.9z"/>
		<path class="st1" d="M846.05,130.11c0,4.57,4.75,6.12,9.32,6.12c6.12,0,9.41-2.01,9.41-5.57c0-3.11-2.28-4.29-6.58-5.03
			l-8.13-1.28c-7.68-1.19-13.89-4.2-13.89-12.61c0-9.41,8.41-14.53,19.65-14.53c11.24,0,19.47,4.39,19.47,13.52h-10.88
			c0-4.11-3.93-5.76-8.68-5.76c-4.84,0-8.22,1.92-8.22,5.21c0,2.83,1.83,4.2,7.04,5.03l8.04,1.28c7.22,1.19,13.89,4.02,13.89,12.61
			c0,10.05-8.77,14.9-21.11,14.9c-11.88,0-20.38-4.39-20.38-13.89L846.05,130.11L846.05,130.11z"/>
		<path class="st1" d="M899.05,117.77l8.59-1.28c4.75-0.73,5.67-1.46,5.67-3.56c-0.09-4.39-2.47-7.49-7.95-7.49
			s-8.41,2.83-8.77,7.31h-10.97c0.64-9.96,8.68-15.54,19.74-15.54c13.16,0,19.74,5.67,19.74,16.27v29.43h-11.24v-5.3h-0.55
			c-2.65,4.02-7.58,6.4-14.26,6.4c-9.96,0-15.17-5.12-15.17-12.61C883.88,123.9,888.45,119.42,899.05,117.77z M913.31,124.9v-3.93
			c-0.82,1.19-2.38,1.74-4.39,2.1l-6.85,1.1c-4.75,0.82-6.58,2.92-6.58,6.03c0,3.47,2.38,5.57,6.95,5.57
			C908.01,135.78,913.31,132.39,913.31,124.9z"/>
		<path class="st2" d="M969.41,118.41l9.59-1.65c4.57-0.73,6.03-1.46,6.03-3.75c-0.18-6.85-3.75-10.6-10.6-10.6
			c-6.95,0-11.06,3.66-11.51,9.78h-5.94c0.46-8.77,6.85-14.9,17.45-14.9c10.88,0,16.82,5.94,16.82,16.27v29.33h-5.94v-7.13h-0.27
			c-2.56,5.21-8.04,8.13-15.17,8.13c-9.32,0-14.62-4.94-14.62-12.25C955.25,124.35,959.54,120.06,969.41,118.41z M985.04,118.96
			c-1,1.19-2.83,1.92-5.12,2.28l-9.41,1.55c-6.3,1-9.05,3.84-9.05,8.32c0,4.57,3.2,7.68,9.41,7.68c7.68,0,14.16-4.66,14.16-14.8
			v-5.03C985.03,118.96,985.04,118.96,985.04,118.96z"/>
		<path class="st2" d="M1021.86,97.3c6.85,0,12.34,2.92,15.17,8.96h0.27c-0.27-4.39-0.27-14.35-0.27-16.63V76.01h6.21v66.89h-5.94
			v-8.04h-0.27c-2.83,6.21-8.77,9.05-15.72,9.05c-11.06,0-19.46-8.59-19.46-22.94C1001.85,106.62,1010.81,97.3,1021.86,97.3z
			 M1022.69,138.52c7.86,0,13.98-6.21,14.35-17.09v-1.65c-0.37-10.78-6.49-17.09-14.35-17.09c-8.04,0-14.35,7.04-14.35,18.28
			C1008.34,132.21,1014.65,138.52,1022.69,138.52z"/>
		<path class="st2" d="M1056.04,158.35c5.57,0,8.96-3.47,11.15-9.6l1.65-4.48l-17.55-45.97h6.76l13.71,37.83h0.27l13.62-37.83h6.21
			l-19.56,52.18c-2.47,6.58-6.58,13.16-15.17,13.16h-3.56v-5.3L1056.04,158.35L1056.04,158.35z"/>
		<path class="st2" d="M1116.35,97.3c11.15,0,19.19,7.86,19.19,21.2v2.56h-33.26c0.18,10.42,5.67,17.45,14.44,17.45
			c7.04,0,11.33-4.02,12.25-9.14h6.21c-1.19,8.13-8.5,14.53-18.46,14.53c-13.43,0-20.93-9.23-20.93-23.3
			C1095.79,106.81,1104.75,97.3,1116.35,97.3z M1102.55,116.4h26.68c-0.64-9.32-5.57-13.71-12.88-13.71
			C1109.41,102.69,1103.92,107.9,1102.55,116.4z"/>
		<path class="st2" d="M1146.6,98.31h5.94v7.31h0.27c2.65-5.57,8.13-8.32,14.62-8.32c8.77,0,16.17,4.84,16.17,18.28v27.32h-6.21
			v-26.5c0-10.05-4.57-13.71-11.24-13.71c-7.31,0-13.34,5.94-13.34,17v23.21h-6.21L1146.6,98.31L1146.6,98.31z"/>
	</g>
	<g id="PERGUNTA">
		<g>
			<path class="st2" d="M283.79,845.13c10.93,0,17.94,5.98,19.62,15.37h-8.62c-1.42-5.15-5.15-7.98-11-7.98
				c-8.1,0-13.18,6.37-13.18,15.5c0,8.94,5.21,15.5,13.18,15.5c6.24,0,9.58-2.83,11-7.97h8.62c-1.67,9.39-8.81,15.37-19.74,15.37
				c-13.64,0-21.93-9.71-21.93-22.9C261.73,854.97,270.35,845.13,283.79,845.13z"/>
			<path class="st2" d="M325.98,857.99c9.97,0,16.59,6.05,16.59,16.46c0,10.29-7.01,16.46-16.59,16.46
				c-10.03,0-16.66-6.04-16.66-16.46C309.32,864.17,316.33,857.99,325.98,857.99z M325.98,884.62c4.89,0,8.04-3.92,8.04-10.16
				c0-6.37-3.15-10.1-8.04-10.1s-8.1,3.86-8.1,10.1S321.09,884.62,325.98,884.62z"/>
			<path class="st2" d="M349.52,858.77h7.91v4.5h0.26c1.8-3.47,5.27-5.27,9.52-5.27c4.5,0,8.36,1.74,10.23,6.11
				c2.32-4.57,6.24-6.11,10.55-6.11c6.3,0,11.45,3.34,11.45,12.86v19.29h-8.3v-18.39c0-5.47-2.06-7.33-5.6-7.33
				c-3.92,0-6.95,3.41-6.95,9.13v16.59h-8.23v-18.39c0-5.47-2.19-7.33-5.6-7.33c-3.86,0-6.95,3.28-6.95,9.07v16.66h-8.3v-31.39
				L349.52,858.77L349.52,858.77z"/>
			<path class="st2" d="M422.64,857.99c9.97,0,16.59,6.05,16.59,16.46c0,10.29-7.01,16.46-16.59,16.46
				c-10.03,0-16.66-6.04-16.66-16.46C405.98,864.17,412.99,857.99,422.64,857.99z M422.64,884.62c4.89,0,8.04-3.92,8.04-10.16
				c0-6.37-3.15-10.1-8.04-10.1s-8.1,3.86-8.1,10.1S417.75,884.62,422.64,884.62z"/>
			<path class="st2" d="M456.08,858.77h9l7.59,23.22h0.26l7.52-23.22h8.43l-11.25,31.39h-9.97L456.08,858.77z"/>
			<path class="st2" d="M507.6,857.99c9.97,0,16.59,6.05,16.59,16.46c0,10.29-7.01,16.46-16.59,16.46
				c-10.03,0-16.66-6.04-16.66-16.46C490.94,864.17,497.95,857.99,507.6,857.99z M507.6,884.62c4.89,0,8.04-3.92,8.04-10.16
				c0-6.37-3.15-10.1-8.04-10.1c-4.89,0-8.1,3.86-8.1,10.1C499.49,880.7,502.71,884.62,507.6,884.62z"/>
			<path class="st2" d="M545.67,857.99c9.26,0,14.28,5.21,14.99,11.71h-8.17c-0.45-2.83-2.57-5.4-6.82-5.4
				c-4.63,0-7.78,4.18-7.78,10.16s3.15,10.16,7.78,10.16c4.31,0,6.3-2.57,6.82-5.4h8.17c-0.71,6.5-5.6,11.71-14.99,11.71
				c-10.03,0-16.34-5.98-16.34-16.46C529.33,864.17,536.02,857.99,545.67,857.99z"/>
			<path class="st2" d="M581.81,857.99c9.39,0,15.37,5.66,15.37,15.63v2.32h-23.15c0.39,5.66,3.34,8.94,8.04,8.94
				c4.12,0,6.11-2.25,6.75-4.25h8.04c-0.96,5.6-6.56,10.29-14.92,10.29c-10.35,0-16.4-5.85-16.4-16.34
				C565.54,864.43,572.23,857.99,581.81,857.99z M578.66,843.07h6.3l8.23,10.55h-6.82l-4.57-6.37l-4.57,6.37h-6.82L578.66,843.07z
				 M574.29,870.79h14.47c-0.58-4.69-2.89-6.82-6.95-6.82C577.95,863.98,575.25,866.36,574.29,870.79z"/>
			<path class="st2" d="M617.89,843.07h8.81v7.72h-8.81V843.07z M618.15,858.77h8.3v31.39h-8.3V858.77z"/>
			<path class="st2" d="M635.45,858.77h7.91v4.5h0.26c1.8-3.47,5.27-5.27,9.52-5.27c4.5,0,8.36,1.74,10.23,6.11
				c2.32-4.57,6.24-6.11,10.55-6.11c6.3,0,11.45,3.34,11.45,12.86v19.29h-8.3v-18.39c0-5.47-2.06-7.33-5.6-7.33
				c-3.92,0-6.95,3.41-6.95,9.13v16.59h-8.23v-18.39c0-5.47-2.19-7.33-5.6-7.33c-3.86,0-6.95,3.28-6.95,9.07v16.66h-8.3
				L635.45,858.77L635.45,858.77z"/>
			<path class="st2" d="M702.85,872.47l6.05-0.9c3.34-0.51,3.99-1.03,3.99-2.51c-0.06-3.09-1.74-5.27-5.6-5.27s-5.92,1.99-6.17,5.14
				h-7.72c0.45-7.01,6.11-10.93,13.89-10.93c9.26,0,13.89,3.99,13.89,11.45v20.71h-7.91v-3.73h-0.39c-1.87,2.83-5.34,4.5-10.03,4.5
				c-7.01,0-10.68-3.6-10.68-8.88C692.17,876.77,695.39,873.62,702.85,872.47z M712.88,877.48v-2.77c-0.58,0.84-1.67,1.22-3.09,1.48
				l-4.82,0.77c-3.34,0.58-4.63,2.06-4.63,4.25c0,2.44,1.67,3.92,4.89,3.92C709.15,885.14,712.88,882.76,712.88,877.48z"/>
			<path class="st2" d="M736.42,894.01c0.13,3.02,3.02,5.02,7.27,5.02c5.6,0,8.75-2.96,8.75-10.55v-2.83h-0.26
				c-1.8,3.47-5.47,5.27-10.29,5.27c-7.85,0-14.15-5.66-14.15-16.21s6.56-16.72,14.66-16.72c4.63,0,7.98,1.8,9.78,5.27h0.26v-4.5
				h7.91v29.71c0,11.77-6.62,16.34-16.66,16.34c-8.81,0-14.79-3.47-15.05-10.8L736.42,894.01L736.42,894.01z M744.14,884.62
				c4.63,0,7.91-3.86,7.91-10.16v-0.45c-0.19-6.04-3.41-9.71-7.91-9.71c-4.7,0-7.85,4.12-7.85,10.42S739.44,884.62,744.14,884.62z"
				/>
			<path class="st2" d="M769.09,843.07h8.81v7.72h-8.81V843.07z M769.35,858.77h8.3v31.39h-8.3V858.77z"/>
			<path class="st2" d="M786.65,858.77h7.91v4.5h0.26c1.8-3.47,5.27-5.27,9.65-5.27c6.43,0,12.09,3.34,12.09,13.12v19.04h-8.3
				v-18.01c0-5.79-2.44-7.72-6.11-7.72c-4.12,0-7.2,3.41-7.2,9.2v16.53h-8.3L786.65,858.77L786.65,858.77z"/>
			<path class="st2" d="M834.05,872.47l6.05-0.9c3.34-0.51,3.99-1.03,3.99-2.51c-0.06-3.09-1.74-5.27-5.6-5.27s-5.92,1.99-6.17,5.14
				h-7.72c0.45-7.01,6.11-10.93,13.89-10.93c9.26,0,13.89,3.99,13.89,11.45v20.71h-7.91v-3.73h-0.39c-1.87,2.83-5.34,4.5-10.03,4.5
				c-7.01,0-10.68-3.6-10.68-8.88C823.37,876.77,826.59,873.62,834.05,872.47z M844.08,877.48v-2.77c-0.58,0.84-1.67,1.22-3.09,1.48
				l-4.82,0.77c-3.34,0.58-4.63,2.06-4.63,4.25c0,2.44,1.67,3.92,4.89,3.92C840.35,885.14,844.08,882.76,844.08,877.48z"/>
			<path class="st2" d="M889.74,857.99c9.97,0,16.59,6.05,16.59,16.46c0,10.29-7.01,16.46-16.59,16.46
				c-10.03,0-16.66-6.04-16.66-16.46C873.08,864.17,880.09,857.99,889.74,857.99z M889.74,884.62c4.89,0,8.04-3.92,8.04-10.16
				c0-6.37-3.15-10.1-8.04-10.1c-4.89,0-8.1,3.86-8.1,10.1S884.85,884.62,889.74,884.62z"/>
			<path class="st2" d="M928.97,864.94h-5.92v-6.17h5.92v-3.73c0-8.1,3.34-11.96,12.09-11.96h4.44v6.43h-3.09
				c-3.86,0-5.14,1.61-5.14,5.34v3.92h7.2v6.17h-7.2v25.21h-8.3V864.94z"/>
			<path class="st2" d="M949.36,858.77h8.3v18.01c0,5.79,2.44,7.72,6.11,7.72c4.05,0,7.07-3.34,7.07-9.13v-16.59h8.23v31.39h-7.85
				v-4.5h-0.26c-1.8,3.47-5.15,5.27-9.52,5.27c-6.43,0-12.09-3.34-12.09-13.12v-19.05H949.36z"/>
			<path class="st2" d="M989.29,864.94h-5.92v-6.17h5.92v-9.52h8.23v9.52h7.78v6.17h-7.78v13.89c0,3.34,1.09,4.63,4.37,4.63h3.41
				v6.69h-5.02c-8.17,0-11-2.96-11-10.8v-14.41L989.29,864.94L989.29,864.94z"/>
			<path class="st2" d="M1011.22,858.77h8.3v18.01c0,5.79,2.44,7.72,6.11,7.72c4.05,0,7.07-3.34,7.07-9.13v-16.59h8.23v31.39h-7.85
				v-4.5h-0.26c-1.8,3.47-5.15,5.27-9.52,5.27c-6.43,0-12.09-3.34-12.09-13.12v-19.05H1011.22z"/>
			<path class="st2" d="M1050,858.77h7.91v4.76h0.13c1.54-3.34,4.31-5.53,8.36-5.53c1.29,0,2.77,0.19,4.37,1.29l-1.67,7.14
				c-1.42-0.71-2.64-1.03-3.86-1.03c-4.7,0-6.95,4.25-6.95,9.78v14.99h-8.3v-31.4L1050,858.77L1050,858.77z"/>
			<path class="st2" d="M1089.23,857.99c9.97,0,16.59,6.05,16.59,16.46c0,10.29-7.01,16.46-16.59,16.46
				c-10.03,0-16.66-6.04-16.66-16.46C1072.58,864.17,1079.59,857.99,1089.23,857.99z M1089.23,884.62c4.89,0,8.04-3.92,8.04-10.16
				c0-6.37-3.15-10.1-8.04-10.1s-8.1,3.86-8.1,10.1S1084.35,884.62,1089.23,884.62z"/>
			<path class="st2" d="M1139.53,857.99c4.63,0,7.97,1.8,9.78,5.27h0.26c-0.39-4.12-0.39-8.43-0.39-10.55v-9.65h8.3v47.08h-7.91
				v-4.5h-0.26c-1.8,3.47-5.47,5.27-10.29,5.27c-7.85,0-14.15-5.66-14.15-16.21S1131.42,857.99,1139.53,857.99z M1141.26,884.62
				c4.5,0,7.72-3.67,7.91-9.65v-0.51c0-6.3-3.28-10.16-7.91-10.16c-4.7,0-7.85,4.12-7.85,10.42S1136.57,884.62,1141.26,884.62z"/>
			<path class="st2" d="M1181.07,857.99c9.97,0,16.59,6.05,16.59,16.46c0,10.29-7.01,16.46-16.59,16.46
				c-10.03,0-16.66-6.04-16.66-16.46C1164.42,864.17,1171.42,857.99,1181.07,857.99z M1181.07,884.62c4.89,0,8.04-3.92,8.04-10.16
				c0-6.37-3.15-10.1-8.04-10.1s-8.1,3.86-8.1,10.1S1176.18,884.62,1181.07,884.62z"/>
			<path class="st2" d="M1210.08,881.15c0,3.22,3.34,4.31,6.56,4.31c4.31,0,6.62-1.42,6.62-3.92c0-2.19-1.61-3.02-4.63-3.54
				l-5.72-0.9c-5.4-0.84-9.78-2.96-9.78-8.88c0-6.62,5.92-10.23,13.83-10.23s13.7,3.09,13.7,9.52H1223c0-2.89-2.77-4.05-6.11-4.05
				c-3.41,0-5.79,1.35-5.79,3.67c0,1.99,1.29,2.96,4.95,3.54l5.66,0.9c5.08,0.84,9.78,2.83,9.78,8.88c0,7.08-6.17,10.48-14.86,10.48
				c-8.36,0-14.34-3.09-14.34-9.78H1210.08z"/>
			<path class="st2" d="M1260.95,904.3h-8.3v-45.54h7.91v4.5h0.26c1.8-3.47,5.47-5.27,10.29-5.27c7.91,0,14.15,5.66,14.15,16.21
				s-6.56,16.72-14.66,16.72c-4.57,0-7.98-1.8-9.78-5.27h-0.26c0.39,4.12,0.39,8.42,0.39,10.55V904.3z M1268.92,864.3
				c-4.57,0-7.85,3.67-7.98,9.71v0.45c0,6.3,3.28,10.16,7.98,10.16c4.63,0,7.85-4.12,7.85-10.42S1273.55,864.3,1268.92,864.3z"/>
			<path class="st2" d="M1301.08,872.47l6.05-0.9c3.34-0.51,3.99-1.03,3.99-2.51c-0.06-3.09-1.74-5.27-5.6-5.27
				s-5.92,1.99-6.17,5.14h-7.72c0.45-7.01,6.11-10.93,13.89-10.93c9.26,0,13.89,3.99,13.89,11.45v20.71h-7.91v-3.73h-0.39
				c-1.87,2.83-5.34,4.5-10.03,4.5c-7.01,0-10.68-3.6-10.68-8.88C1290.4,876.77,1293.62,873.62,1301.08,872.47z M1311.11,877.48
				v-2.77c-0.58,0.84-1.67,1.22-3.09,1.48l-4.82,0.77c-3.34,0.58-4.63,2.06-4.63,4.25c0,2.44,1.67,3.92,4.89,3.92
				C1307.38,885.14,1311.11,882.76,1311.11,877.48z"/>
			<path class="st2" d="M1334.65,894.01c0.13,3.02,3.02,5.02,7.27,5.02c5.6,0,8.75-2.96,8.75-10.55v-2.83h-0.26
				c-1.8,3.47-5.47,5.27-10.29,5.27c-7.85,0-14.15-5.66-14.15-16.21s6.56-16.72,14.66-16.72c4.63,0,7.97,1.8,9.78,5.27h0.26v-4.5
				h7.91v29.71c0,11.77-6.62,16.34-16.66,16.34c-8.81,0-14.79-3.47-15.05-10.8L1334.65,894.01L1334.65,894.01z M1342.37,884.62
				c4.63,0,7.91-3.86,7.91-10.16v-0.45c-0.19-6.04-3.41-9.71-7.91-9.71c-4.7,0-7.85,4.12-7.85,10.42S1337.67,884.62,1342.37,884.62z
				"/>
			<path class="st2" d="M1376.45,872.47l6.05-0.9c3.34-0.51,3.99-1.03,3.99-2.51c-0.06-3.09-1.74-5.27-5.6-5.27
				s-5.92,1.99-6.17,5.14H1367c0.45-7.01,6.11-10.93,13.89-10.93c9.26,0,13.89,3.99,13.89,11.45v20.71h-7.91v-3.73h-0.39
				c-1.87,2.83-5.34,4.5-10.03,4.5c-7.01,0-10.68-3.6-10.68-8.88C1365.78,876.77,1368.99,873.62,1376.45,872.47z M1386.49,877.48
				v-2.77c-0.58,0.84-1.67,1.22-3.09,1.48l-4.82,0.77c-3.34,0.58-4.63,2.06-4.63,4.25c0,2.44,1.67,3.92,4.89,3.92
				C1382.75,885.14,1386.49,882.76,1386.49,877.48z"/>
			<path class="st2" d="M1403.4,858.77h7.91v4.5h0.26c1.8-3.47,5.27-5.27,9.52-5.27c4.5,0,8.36,1.74,10.23,6.11
				c2.32-4.57,6.24-6.11,10.55-6.11c6.3,0,11.45,3.34,11.45,12.86v19.29h-8.3v-18.39c0-5.47-2.06-7.33-5.6-7.33
				c-3.92,0-6.95,3.41-6.95,9.13v16.59h-8.23v-18.39c0-5.47-2.19-7.33-5.6-7.33c-3.86,0-6.95,3.28-6.95,9.07v16.66h-8.3
				L1403.4,858.77L1403.4,858.77z"/>
			<path class="st2" d="M1476.01,857.99c9.39,0,15.37,5.66,15.37,15.63v2.32h-23.15c0.39,5.66,3.34,8.94,8.04,8.94
				c4.12,0,6.11-2.25,6.75-4.25h8.04c-0.96,5.6-6.56,10.29-14.92,10.29c-10.35,0-16.4-5.85-16.4-16.34
				C1459.74,864.43,1466.42,857.99,1476.01,857.99z M1468.48,870.79h14.47c-0.58-4.69-2.89-6.82-6.95-6.82
				C1472.15,863.98,1469.45,866.36,1468.48,870.79z"/>
			<path class="st2" d="M1498.2,858.77h7.91v4.5h0.26c1.8-3.47,5.27-5.27,9.65-5.27c6.43,0,12.09,3.34,12.09,13.12v19.04h-8.3
				v-18.01c0-5.79-2.44-7.72-6.11-7.72c-4.12,0-7.2,3.41-7.2,9.2v16.53h-8.3V858.77z"/>
			<path class="st2" d="M1537.88,864.94h-5.92v-6.17h5.92v-9.52h8.23v9.52h7.78v6.17h-7.78v13.89c0,3.34,1.09,4.63,4.37,4.63h3.41
				v6.69h-5.02c-8.17,0-11-2.96-11-10.8v-14.41L1537.88,864.94L1537.88,864.94z"/>
			<path class="st2" d="M1574.92,857.99c9.97,0,16.59,6.05,16.59,16.46c0,10.29-7.01,16.46-16.59,16.46
				c-10.03,0-16.66-6.04-16.66-16.46C1558.26,864.17,1565.27,857.99,1574.92,857.99z M1574.92,884.62c4.89,0,8.04-3.92,8.04-10.16
				c0-6.37-3.15-10.1-8.04-10.1s-8.1,3.86-8.1,10.1C1566.82,880.7,1570.03,884.62,1574.92,884.62z"/>
			<path class="st2" d="M1603.92,881.15c0,3.22,3.34,4.31,6.56,4.31c4.31,0,6.62-1.42,6.62-3.92c0-2.19-1.61-3.02-4.63-3.54
				l-5.72-0.9c-5.4-0.84-9.78-2.96-9.78-8.88c0-6.62,5.92-10.23,13.83-10.23s13.7,3.09,13.7,9.52h-7.65c0-2.89-2.77-4.05-6.11-4.05
				c-3.41,0-5.79,1.35-5.79,3.67c0,1.99,1.29,2.96,4.95,3.54l5.66,0.9c5.08,0.84,9.78,2.83,9.78,8.88c0,7.08-6.17,10.48-14.86,10.48
				c-8.36,0-14.34-3.09-14.34-9.78H1603.92z"/>
			<path class="st2" d="M1640.13,875.29c0-11.64,11.06-11,11.06-17.75c0-3.22-2.38-5.72-6.37-5.72c-5.27,0-7.33,3.54-7.33,7.46
				h-7.91c0-7.27,4.44-14.15,15.24-14.15c8.68,0,14.66,4.44,14.66,12.03c0,10.68-11.58,10.16-11.58,17.82v1.87h-7.78L1640.13,875.29
				L1640.13,875.29z M1639.75,881.66h8.55v8.49h-8.55V881.66z"/>
		</g>
	</g>
	<rect id="REF_VIDEO" x="423.96" y="212.43" class="st3" width="1072.08" height="552.29"/>
	<g id="LOGO_ADYEN">
		<g>
			<path class="st2" d="M885.04,977.57H856.1v9.21h18.86c1.17,0,2.11,0.95,2.11,2.11v16.32h-4.03c-1.17,0-2.11-0.95-2.11-2.11
				v-11.71h-7.96c-4.08,0-7.39,3.31-7.39,7.39v8.25c0,4.08,3.31,7.39,7.39,7.39h29.46v-29.46
				C892.43,980.88,889.12,977.57,885.04,977.57"/>
			<g>
				<path class="st2" d="M920.07,1005.22h-4.03c-1.17,0-2.11-0.95-2.11-2.11v-25.53h-7.96c-4.08,0-7.39,3.31-7.39,7.39v22.07
					c0,4.08,3.31,7.39,7.39,7.39h29.46v-52.21h-15.36V1005.22z"/>
			</g>
			<g>
				<path class="st2" d="M963.07,1005.22h-4.03c-1.17,0-2.11-0.95-2.11-2.11v-25.53h-15.36v29.46c0,4.08,3.31,7.39,7.39,7.39h14.11
					v4.61H942.1v10.75h28.94c4.08,0,7.39-3.31,7.39-7.39v-44.82h-15.36V1005.22z"/>
			</g>
			<path class="st2" d="M1014.04,977.57h-29.46v29.46c0,4.08,3.31,7.39,7.39,7.39h28.94v-9.21h-18.86c-1.17,0-2.11-0.95-2.11-2.11
				v-16.32h4.03c1.17,0,2.11,0.95,2.11,2.11v11.71h7.96c4.08,0,7.39-3.31,7.39-7.39v-8.25
				C1021.43,980.88,1018.12,977.57,1014.04,977.57"/>
			<path class="st2" d="M1057.04,977.57h-29.46v36.86h15.36v-27.64h4.03c1.16,0,2.11,0.95,2.11,2.11v25.53h15.36v-29.46
				C1064.43,980.88,1061.12,977.57,1057.04,977.57"/>
		</g>
	</g>
</g>
</svg>
