<?xml version="1.0" encoding="utf-8"?>
<!-- Generator: Adobe Illustrator 26.1.0, SVG Export Plug-In . SVG Version: 6.00 Build 0)  -->
<svg version="1.1" id="Camada_1" xmlns="http://www.w3.org/2000/svg" xmlns:xlink="http://www.w3.org/1999/xlink" x="0px" y="0px"
	 viewBox="0 0 1920 1080" style="enable-background:new 0 0 1920 1080;" xml:space="preserve">
<style type="text/css">
	.st0{fill:#12162A;}
	.st1{fill:#F3F6F9;}
	.st2{fill:#41AD55;}
	.st3{fill:#FFFFFF;}
</style>
<g id="Tela_4">
	<g id="BG_00000045616937816711385790000001551354778094775724_">
		<rect y="-1.37" class="st0" width="1920" height="1083.51"/>
		<polygon class="st1" points="1920,-1.37 1906.2,14.21 1492.8,468.77 1492.8,-2.15 1620.76,-2.15 		"/>
		<polygon class="st2" points="1920,-1.37 1920,1082.15 682.8,1082.15 1251.5,464.3 1492.8,464.3 		"/>
	</g>
	<g id="TEXTO">
		<path class="st1" d="M155.15,311.22h17.1l27.7,74.45h-15.37L178.84,369H148l-5.84,16.67h-14.72L155.15,311.22z M163.38,324.97
			l-11.36,32.36h22.83l-11.04-32.36H163.38z"/>
		<path class="st1" d="M220.62,392.17c0.22,5.09,5.09,8.44,12.23,8.44c9.42,0,14.72-4.98,14.72-17.75v-4.76h-0.43
			c-3.03,5.84-9.2,8.87-17.31,8.87c-13.2,0-23.81-9.52-23.81-27.27s11.04-28.14,24.67-28.14c7.79,0,13.42,3.03,16.45,8.87h0.43
			v-7.58h13.31v50c0,19.8-11.15,27.49-28.03,27.49c-14.83,0-24.89-5.84-25.32-18.18h13.09L220.62,392.17L220.62,392.17z
			 M233.61,376.37c7.79,0,13.31-6.49,13.31-17.1v-0.76c-0.32-10.17-5.74-16.34-13.31-16.34c-7.9,0-13.2,6.93-13.2,17.53
			S225.71,376.37,233.61,376.37z"/>
		<path class="st1" d="M276.03,332.87h13.31v8.01h0.22c2.6-5.63,7.25-9.31,14.07-9.31c2.16,0,4.65,0.32,7.36,2.16l-2.81,12.01
			c-2.38-1.19-4.44-1.73-6.49-1.73c-7.9,0-11.69,7.14-11.69,16.45v25.21h-13.96v-52.8L276.03,332.87L276.03,332.87z"/>
		<path class="st1" d="M332.41,355.92l10.17-1.52c5.63-0.87,6.71-1.73,6.71-4.22c-0.11-5.19-2.92-8.87-9.42-8.87
			s-9.96,3.35-10.39,8.66h-12.99c0.76-11.8,10.28-18.4,23.37-18.4c15.58,0,23.38,6.71,23.38,19.26v34.85h-13.31v-6.28h-0.65
			c-3.14,4.76-8.98,7.58-16.88,7.58c-11.8,0-17.96-6.06-17.96-14.93C314.44,363.17,319.85,357.86,332.41,355.92z M349.29,364.36
			v-4.65c-0.97,1.41-2.81,2.06-5.19,2.49l-8.12,1.3c-5.63,0.97-7.79,3.46-7.79,7.14c0,4.11,2.81,6.6,8.22,6.6
			C343.01,377.24,349.29,373.23,349.29,364.36z"/>
		<path class="st1" d="M398.96,331.58c7.79,0,13.42,3.03,16.45,8.87h0.43c-0.65-6.93-0.65-14.18-0.65-17.75v-16.23h13.96v79.21
			h-13.31v-7.58h-0.43c-3.03,5.84-9.2,8.87-17.31,8.87c-13.2,0-23.81-9.52-23.81-27.27S385.33,331.58,398.96,331.58z M401.88,376.37
			c7.58,0,12.99-6.17,13.31-16.23v-0.87c0-10.61-5.52-17.1-13.31-17.1c-7.9,0-13.2,6.93-13.2,17.53S393.98,376.37,401.88,376.37z"/>
		<path class="st1" d="M468,331.58c15.8,0,25.86,9.52,25.86,26.3v3.9H454.9c0.65,9.52,5.63,15.04,13.53,15.04
			c6.93,0,10.28-3.79,11.36-7.14h13.53c-1.62,9.41-11.04,17.31-25.11,17.31c-17.42,0-27.59-9.85-27.59-27.49
			C440.62,342.39,451.88,331.58,468,331.58z M455.34,353.1h24.35c-0.97-7.9-4.87-11.47-11.69-11.47
			C461.51,341.63,456.96,345.64,455.34,353.1z"/>
		<path class="st1" d="M530.23,331.58c15.58,0,24.02,8.77,25.21,19.7H541.7c-0.76-4.76-4.33-9.09-11.47-9.09
			c-7.79,0-13.09,7.03-13.09,17.1c0,10.06,5.3,17.1,13.09,17.1c7.25,0,10.6-4.33,11.47-9.09h13.74c-1.19,10.93-9.42,19.7-25.21,19.7
			c-16.88,0-27.49-10.06-27.49-27.7C502.74,341.97,513.99,331.58,530.23,331.58z"/>
		<path class="st1" d="M591.04,331.58c15.8,0,25.86,9.52,25.86,26.3v3.9h-38.96c0.65,9.52,5.63,15.04,13.53,15.04
			c6.93,0,10.28-3.79,11.36-7.14h13.53c-1.62,9.41-11.04,17.31-25.11,17.31c-17.42,0-27.59-9.85-27.59-27.49
			C563.66,342.39,574.92,331.58,591.04,331.58z M578.38,353.1h24.35c-0.97-7.9-4.87-11.47-11.69-11.47
			C584.55,341.63,580,345.64,578.38,353.1z"/>
		<path class="st1" d="M628.38,332.87h13.31v7.58h0.43c3.03-5.84,8.87-8.87,16.02-8.87c7.58,0,14.07,2.92,17.21,10.28
			c3.9-7.68,10.5-10.28,17.75-10.28c10.6,0,19.26,5.63,19.26,21.64v32.46H698.4v-30.95c0-9.2-3.46-12.34-9.42-12.34
			c-6.6,0-11.69,5.74-11.69,15.37v27.92h-13.85v-30.95c0-9.2-3.68-12.34-9.42-12.34c-6.49,0-11.69,5.52-11.69,15.26v28.03h-13.96
			L628.38,332.87L628.38,332.87z"/>
		<path class="st1" d="M751.42,331.58c16.77,0,27.92,10.17,27.92,27.7c0,17.31-11.8,27.7-27.92,27.7
			c-16.88,0-28.03-10.17-28.03-27.7C723.39,341.97,735.19,331.58,751.42,331.58z M751.42,376.37c8.22,0,13.53-6.6,13.53-17.1
			c0-10.71-5.3-16.99-13.53-16.99c-8.22,0-13.63,6.49-13.63,16.99S743.2,376.37,751.42,376.37z"/>
		<path class="st1" d="M800.22,370.53c0,5.41,5.63,7.25,11.04,7.25c7.25,0,11.15-2.38,11.15-6.6c0-3.68-2.71-5.09-7.79-5.95
			l-9.63-1.51c-9.09-1.41-16.45-4.98-16.45-14.93c0-11.15,9.96-17.21,23.27-17.21s23.05,5.19,23.05,16.02h-12.88
			c0-4.87-4.65-6.82-10.28-6.82c-5.74,0-9.74,2.27-9.74,6.17c0,3.35,2.16,4.98,8.33,5.95l9.52,1.51
			c8.55,1.41,16.45,4.76,16.45,14.93c0,11.9-10.39,17.64-25,17.64c-14.07,0-24.13-5.19-24.13-16.45L800.22,370.53L800.22,370.53z"/>
		<path class="st1" d="M143.36,500.39c0,5.41,5.63,7.25,11.04,7.25c7.25,0,11.15-2.38,11.15-6.6c0-3.68-2.71-5.09-7.79-5.95
			l-9.63-1.51c-9.09-1.41-16.45-4.98-16.45-14.93c0-11.15,9.96-17.21,23.27-17.21S178,466.63,178,477.47h-12.88
			c0-4.87-4.65-6.82-10.28-6.82c-5.74,0-9.74,2.27-9.74,6.17c0,3.35,2.16,4.98,8.33,5.95l9.52,1.51
			c8.55,1.41,16.45,4.76,16.45,14.93c0,11.9-10.39,17.64-25,17.64c-14.07,0-24.13-5.19-24.13-16.45L143.36,500.39L143.36,500.39z"/>
		<path class="st1" d="M190.32,462.73h13.96v30.3c0,9.74,4.11,12.99,10.28,12.99c6.82,0,11.9-5.63,11.9-15.37v-27.92h13.85v52.81
			h-13.2v-7.58h-0.43c-3.03,5.84-8.66,8.87-16.02,8.87c-10.82,0-20.34-5.63-20.34-22.08V462.73z"/>
		<path class="st1" d="M270.51,485.78l10.17-1.52c5.63-0.87,6.71-1.73,6.71-4.22c-0.11-5.19-2.92-8.87-9.42-8.87
			s-9.96,3.35-10.39,8.66h-12.99c0.76-11.8,10.28-18.4,23.37-18.4c15.58,0,23.38,6.71,23.38,19.26v34.85h-13.31v-6.28h-0.65
			c-3.14,4.76-8.98,7.58-16.88,7.58c-11.8,0-17.96-6.06-17.96-14.93C252.54,493.03,257.96,487.73,270.51,485.78z M287.39,494.22
			v-4.65c-0.97,1.41-2.81,2.06-5.19,2.49l-8.12,1.3c-5.63,0.97-7.79,3.46-7.79,7.14c0,4.11,2.81,6.6,8.22,6.6
			C281.11,507.1,287.39,503.1,287.39,494.22z"/>
		<path class="st1" d="M364.22,461.43c16.77,0,27.92,10.17,27.92,27.7c0,17.31-11.8,27.7-27.92,27.7
			c-16.88,0-28.03-10.17-28.03-27.7C336.19,471.83,347.99,461.43,364.22,461.43z M364.22,506.23c8.22,0,13.53-6.6,13.53-17.1
			c0-10.71-5.3-16.99-13.53-16.99c-8.22,0-13.63,6.49-13.63,16.99S356,506.23,364.22,506.23z"/>
		<path class="st1" d="M417.79,539.35h-13.96v-76.62h13.31v7.58h0.43c3.03-5.84,9.2-8.87,17.31-8.87c13.31,0,23.81,9.52,23.81,27.27
			s-11.04,28.14-24.67,28.14c-7.68,0-13.42-3.03-16.45-8.87h-0.43c0.65,6.93,0.65,14.18,0.65,17.75L417.79,539.35L417.79,539.35z
			 M431.21,472.03c-7.68,0-13.2,6.17-13.42,16.34v0.76c0,10.6,5.52,17.1,13.42,17.1c7.79,0,13.2-6.93,13.2-17.53
			C444.41,478.1,439,472.03,431.21,472.03z"/>
		<path class="st1" d="M469.95,436.33h14.83v12.99h-14.83V436.33z M470.38,462.73h13.96v52.81h-13.96V462.73z"/>
		<path class="st1" d="M499.49,462.73h13.31v7.58h0.43c3.03-5.84,8.87-8.87,16.23-8.87c10.82,0,20.34,5.63,20.34,22.08v32.03h-13.96
			v-30.3c0-9.74-4.11-12.99-10.28-12.99c-6.93,0-12.12,5.74-12.12,15.47v27.81h-13.96v-52.81L499.49,462.73L499.49,462.73z"/>
		<path class="st1" d="M563.88,436.33h14.83v12.99h-14.83V436.33z M564.31,462.73h13.96v52.81h-13.96V462.73z"/>
		<path class="st1" d="M608.36,485.78l10.17-1.52c5.63-0.87,6.71-1.73,6.71-4.22c-0.11-5.19-2.92-8.87-9.42-8.87
			s-9.96,3.35-10.39,8.66h-12.99c0.76-11.8,10.28-18.4,23.37-18.4c15.58,0,23.38,6.71,23.38,19.26v34.85h-13.31v-6.28h-0.65
			c-3.14,4.76-8.98,7.58-16.88,7.58c-11.8,0-17.96-6.06-17.96-14.93C590.39,493.03,595.8,487.73,608.36,485.78z M607.82,438.6
			c6.49,0,11.8,4.76,16.02,4.76c2.81,0,3.9-2.71,4.11-5.19h6.6c-0.22,8.33-4,13.53-11.15,13.53c-6.6,0-11.8-4.87-16.02-4.87
			c-2.81,0-3.9,2.71-4.11,5.19h-6.6C596.78,443.79,600.67,438.6,607.82,438.6z M625.24,494.22v-4.65c-0.97,1.41-2.81,2.06-5.19,2.49
			l-8.12,1.3c-5.63,0.97-7.79,3.46-7.79,7.14c0,4.11,2.81,6.6,8.22,6.6C618.96,507.1,625.24,503.1,625.24,494.22z"/>
		<path class="st1" d="M678.26,461.43c16.77,0,27.92,10.17,27.92,27.7c0,17.31-11.8,27.7-27.92,27.7
			c-16.88,0-28.03-10.17-28.03-27.7C650.24,471.83,662.03,461.43,678.26,461.43z M678.26,506.23c8.22,0,13.53-6.6,13.53-17.1
			c0-10.71-5.3-16.99-13.53-16.99c-8.22,0-13.63,6.49-13.63,16.99S670.04,506.23,678.26,506.23z"/>
		<path class="st1" d="M741.68,462.73h13.31v7.58h0.43c3.03-5.84,8.87-8.87,16.23-8.87c10.82,0,20.34,5.63,20.34,22.08v32.03h-13.96
			v-30.3c0-9.74-4.11-12.99-10.28-12.99c-6.93,0-12.12,5.74-12.12,15.47v27.81h-13.96v-52.81L741.68,462.73L741.68,462.73z"/>
		<path class="st1" d="M831.06,461.43c16.77,0,27.92,10.17,27.92,27.7c0,17.31-11.8,27.7-27.92,27.7
			c-16.88,0-28.03-10.17-28.03-27.7C803.04,471.83,814.83,461.43,831.06,461.43z M831.06,506.23c8.22,0,13.53-6.6,13.53-17.1
			c0-10.71-5.3-16.99-13.53-16.99c-8.22,0-13.63,6.49-13.63,16.99S822.84,506.23,831.06,506.23z"/>
		<path class="st1" d="M168.46,569.65c18.4,0,30.19,10.06,33.01,25.86h-14.5c-2.38-8.66-8.66-13.42-18.5-13.42
			c-13.63,0-22.18,10.71-22.18,26.08c0,15.04,8.77,26.08,22.18,26.08c10.5,0,16.12-4.76,18.5-13.42h14.5
			c-2.81,15.8-14.83,25.86-33.22,25.86c-22.94,0-36.9-16.34-36.9-38.53C131.34,586.21,145.84,569.65,168.46,569.65z"/>
		<path class="st1" d="M213.37,592.6h13.96v30.3c0,9.74,4.11,12.99,10.28,12.99c6.82,0,11.9-5.63,11.9-15.37V592.6h13.85v52.81
			h-13.2v-7.58h-0.43c-3.03,5.84-8.66,8.87-16.02,8.87c-10.82,0-20.34-5.63-20.34-22.08V592.6z"/>
		<path class="st1" d="M278.62,566.18h13.96v16.23c0,3.57,0,10.82-0.65,17.75h0.43c3.03-5.84,9.2-8.87,17.31-8.87
			c13.31,0,23.81,9.52,23.81,27.27s-11.04,28.14-24.67,28.14c-7.68,0-13.42-3.03-16.45-8.87h-0.43v7.58h-13.31L278.62,566.18
			L278.62,566.18z M306,636.1c7.79,0,13.2-6.93,13.2-17.53s-5.41-16.67-13.2-16.67c-7.68,0-13.2,6.17-13.42,16.34v0.76
			C292.58,629.6,298.1,636.1,306,636.1z"/>
		<path class="st1" d="M370.39,591.29c16.77,0,27.92,10.17,27.92,27.7c0,17.31-11.8,27.7-27.92,27.7
			c-16.88,0-28.03-10.17-28.03-27.7C342.36,601.68,354.16,591.29,370.39,591.29z M370.39,636.1c8.22,0,13.53-6.6,13.53-17.1
			c0-10.71-5.3-16.99-13.53-16.99c-8.22,0-13.63,6.49-13.63,16.99S362.17,636.1,370.39,636.1z"/>
		<path class="st1" d="M434.99,570.96h52.7v12.01h-38.2v22.83h30.52v11.9h-30.52v27.7h-14.5V570.96z"/>
		<path class="st1" d="M494.4,592.6h13.96v30.3c0,9.74,4.11,12.99,10.28,12.99c6.82,0,11.9-5.63,11.9-15.37V592.6h13.85v52.81h-13.2
			v-7.58h-0.43c-3.03,5.84-8.66,8.87-16.02,8.87c-10.82,0-20.34-5.63-20.34-22.08V592.6z"/>
		<path class="st1" d="M561.61,602.98h-9.96v-10.39h9.96v-16.02h13.85v16.02h13.09v10.39h-13.09v23.37c0,5.63,1.84,7.79,7.36,7.79
			h5.74v11.25h-8.44c-13.74,0-18.5-4.98-18.5-18.18v-24.23H561.61z"/>
		<path class="st1" d="M598.51,592.6h13.96v30.3c0,9.74,4.11,12.99,10.28,12.99c6.82,0,11.9-5.63,11.9-15.37V592.6h13.85v52.81
			h-13.2v-7.58h-0.43c-3.03,5.84-8.66,8.87-16.02,8.87c-10.82,0-20.34-5.63-20.34-22.08V592.6z"/>
		<path class="st1" d="M663.76,592.6h13.31v8.01h0.22c2.6-5.63,7.25-9.31,14.07-9.31c2.16,0,4.65,0.32,7.36,2.16l-2.81,12.01
			c-2.38-1.19-4.44-1.73-6.49-1.73c-7.9,0-11.69,7.14-11.69,16.45v25.21h-13.96v-52.8L663.76,592.6L663.76,592.6z"/>
		<path class="st1" d="M706.07,566.18h14.83v12.99h-14.83V566.18z M706.5,592.6h13.96v52.81H706.5V592.6z"/>
		<path class="st1" d="M744.81,630.25c0,5.41,5.63,7.25,11.04,7.25c7.25,0,11.15-2.38,11.15-6.6c0-3.68-2.71-5.09-7.79-5.95
			l-9.63-1.51c-9.09-1.41-16.45-4.98-16.45-14.93c0-11.15,9.96-17.21,23.27-17.21s23.05,5.19,23.05,16.02h-12.88
			c0-4.87-4.65-6.82-10.28-6.82c-5.74,0-9.74,2.27-9.74,6.17c0,3.35,2.16,4.98,8.33,5.95l9.52,1.51
			c8.55,1.41,16.45,4.76,16.45,14.93c0,11.9-10.39,17.64-25,17.64c-14.07,0-24.13-5.19-24.13-16.45L744.81,630.25L744.81,630.25z"/>
		<path class="st1" d="M795.24,602.98h-9.96v-10.39h9.96v-16.02h13.85v16.02h13.09v10.39h-13.09v23.37c0,5.63,1.84,7.79,7.36,7.79
			h5.74v11.25h-8.44c-13.74,0-18.5-4.98-18.5-18.18v-24.23H795.24z"/>
		<path class="st1" d="M848.59,615.64l10.17-1.52c5.63-0.87,6.71-1.73,6.71-4.22c-0.11-5.2-2.92-8.87-9.42-8.87
			s-9.96,3.35-10.39,8.66h-12.99c0.76-11.8,10.28-18.4,23.37-18.4c15.58,0,23.38,6.71,23.38,19.26v34.85h-13.31v-6.28h-0.65
			c-3.14,4.76-8.98,7.58-16.88,7.58c-11.8,0-17.96-6.06-17.96-14.93C830.63,622.89,836.04,617.6,848.59,615.64z M865.47,624.09
			v-4.65c-0.97,1.41-2.81,2.06-5.19,2.49l-8.12,1.3c-5.63,0.97-7.79,3.46-7.79,7.14c0,4.11,2.81,6.6,8.22,6.6
			C859.2,636.97,865.47,632.96,865.47,624.09z"/>
		<path class="st1" d="M155.15,700.82h17.1l27.7,74.45h-15.37l-5.74-16.67H148l-5.84,16.67h-14.72L155.15,700.82z M163.38,714.55
			l-11.36,32.36h22.83l-11.04-32.36H163.38z"/>
		<path class="st1" d="M230.68,721.15c7.79,0,13.42,3.03,16.45,8.87h0.43c-0.65-6.93-0.65-14.18-0.65-17.75v-16.23h13.96v79.21
			h-13.31v-7.58h-0.43c-3.03,5.84-9.2,8.87-17.31,8.87c-13.2,0-23.81-9.52-23.81-27.27S217.05,721.15,230.68,721.15z M233.61,765.96
			c7.58,0,12.99-6.17,13.31-16.23v-0.87c0-10.61-5.52-17.1-13.31-17.1c-7.9,0-13.2,6.93-13.2,17.53S225.71,765.96,233.61,765.96z"/>
		<path class="st1" d="M268.88,722.46h15.15l12.77,39.07h0.43l12.66-39.07h14.18l-21.1,59.3c-3.25,9.41-9.31,18.18-21.43,18.18
			h-6.38V788.9h3.25c6.06,0,10.28-2.71,12.55-9.85l1.19-3.79h-3.79L268.88,722.46z"/>
		<path class="st1" d="M354.7,721.15c15.8,0,25.86,9.52,25.86,26.3v3.9H341.6c0.65,9.52,5.63,15.04,13.53,15.04
			c6.93,0,10.28-3.79,11.36-7.14h13.53c-1.62,9.41-11.04,17.31-25.11,17.31c-17.42,0-27.59-9.85-27.59-27.49
			C327.32,731.97,338.58,721.15,354.7,721.15z M342.04,742.68h24.35c-0.97-7.9-4.87-11.47-11.69-11.47
			C348.21,731.22,343.66,735.22,342.04,742.68z"/>
		<path class="st1" d="M392.04,722.46h13.31v7.58h0.43c3.03-5.84,8.87-8.87,16.23-8.87c10.82,0,20.34,5.63,20.34,22.08v32.03h-13.96
			v-30.3c0-9.74-4.11-12.99-10.28-12.99c-6.93,0-12.12,5.74-12.12,15.47v27.81h-13.96v-52.81L392.04,722.46L392.04,722.46z"/>
	</g>
	<g id="CASA_ADYEN_LOGO_00000181777446135911753120000001984857710918197659_">
		<path class="st3" d="M143.92,139.83c8.61,0,13.27,4.84,13.93,10.88h-7.59c-0.42-2.63-2.39-5.02-6.34-5.02
			c-4.3,0-7.23,3.89-7.23,9.45c0,5.56,2.93,9.45,7.23,9.45c4.01,0,5.86-2.39,6.34-5.02h7.59c-0.66,6.04-5.2,10.88-13.93,10.88
			c-9.33,0-15.18-5.56-15.18-15.3C128.74,145.57,134.95,139.83,143.92,139.83z"/>
		<path class="st3" d="M172.56,153.27l5.62-0.84c3.11-0.48,3.71-0.96,3.71-2.33c-0.06-2.87-1.61-4.9-5.2-4.9
			c-3.59,0-5.5,1.85-5.74,4.78h-7.17c0.42-6.52,5.68-10.16,12.91-10.16c8.61,0,12.91,3.71,12.91,10.64v19.25h-7.35v-3.47h-0.36
			c-1.73,2.63-4.96,4.19-9.33,4.19c-6.52,0-9.92-3.35-9.92-8.25S165.62,154.35,172.56,153.27z M181.88,157.93v-2.57
			c-0.54,0.78-1.55,1.14-2.87,1.38l-4.48,0.72c-3.11,0.54-4.3,1.91-4.3,3.95c0,2.27,1.55,3.65,4.54,3.65
			C178.42,165.05,181.88,162.85,181.88,157.93z"/>
		<path class="st3" d="M202.69,161.35c0,2.99,3.11,4.01,6.1,4.01c4.01,0,6.16-1.32,6.16-3.65c0-2.03-1.5-2.81-4.3-3.29l-5.32-0.84
			c-5.02-0.78-9.09-2.75-9.09-8.25c0-6.16,5.5-9.5,12.85-9.5s12.73,2.87,12.73,8.85h-7.11c0-2.69-2.57-3.77-5.68-3.77
			c-3.17,0-5.38,1.26-5.38,3.41c0,1.85,1.2,2.75,4.6,3.29l5.26,0.84c4.72,0.78,9.09,2.63,9.09,8.25c0,6.58-5.74,9.75-13.81,9.75
			c-7.77,0-13.33-2.87-13.33-9.09h7.23V161.35z"/>
		<path class="st3" d="M237.37,153.27l5.62-0.84c3.11-0.48,3.71-0.96,3.71-2.33c-0.06-2.87-1.61-4.9-5.2-4.9
			c-3.59,0-5.5,1.85-5.74,4.78h-7.17c0.42-6.52,5.68-10.16,12.91-10.16c8.61,0,12.91,3.71,12.91,10.64v19.25h-7.35v-3.47h-0.36
			c-1.73,2.63-4.96,4.19-9.33,4.19c-6.52,0-9.92-3.35-9.92-8.25S230.43,154.35,237.37,153.27z M246.69,157.93v-2.57
			c-0.54,0.78-1.55,1.14-2.87,1.38l-4.48,0.72c-3.11,0.54-4.3,1.91-4.3,3.95c0,2.27,1.55,3.65,4.54,3.65
			C243.23,165.05,246.69,162.85,246.69,157.93z"/>
		<path class="st2" d="M283.4,153.7l6.28-1.08c2.99-0.48,3.95-0.96,3.95-2.45c-0.12-4.48-2.45-6.93-6.93-6.93
			c-4.54,0-7.23,2.39-7.53,6.4h-3.89c0.3-5.74,4.48-9.74,11.42-9.74c7.11,0,11,3.89,11,10.64v19.19h-3.89v-4.66h-0.18
			c-1.67,3.41-5.26,5.32-9.92,5.32c-6.1,0-9.57-3.23-9.57-8.01C274.13,157.59,276.94,154.77,283.4,153.7z M293.62,154.05
			c-0.66,0.78-1.85,1.25-3.35,1.49l-6.16,1.02c-4.12,0.66-5.92,2.51-5.92,5.44c0,2.99,2.09,5.02,6.16,5.02
			c5.02,0,9.27-3.05,9.27-9.68V154.05z"/>
		<path class="st2" d="M317.72,139.88c4.48,0,8.07,1.91,9.92,5.86h0.18c-0.18-2.87-0.18-9.39-0.18-10.88v-8.91h4.06v43.76h-3.89
			v-5.26h-0.18c-1.85,4.07-5.74,5.92-10.28,5.92c-7.23,0-12.73-5.62-12.73-15C304.63,145.98,310.49,139.88,317.72,139.88z
			 M318.26,166.85c5.14,0,9.15-4.07,9.39-11.18v-1.08c-0.24-7.05-4.25-11.18-9.39-11.18c-5.26,0-9.39,4.6-9.39,11.96
			S313,166.85,318.26,166.85z"/>
		<path class="st2" d="M340.08,179.83c3.65,0,5.86-2.27,7.29-6.28l1.08-2.93l-11.48-30.07h4.42l8.97,24.75h0.18l8.91-24.75h4.07
			l-12.79,34.14c-1.61,4.3-4.3,8.61-9.92,8.61h-2.33v-3.47H340.08z"/>
		<path class="st2" d="M379.54,139.88c7.29,0,12.55,5.14,12.55,13.87v1.67h-21.76c0.12,6.82,3.71,11.42,9.45,11.42
			c4.6,0,7.41-2.63,8.01-5.98h4.07c-0.78,5.32-5.56,9.5-12.08,9.5c-8.79,0-13.69-6.04-13.69-15.24
			C366.09,146.1,371.95,139.88,379.54,139.88z M370.51,152.37h17.46c-0.42-6.1-3.65-8.97-8.43-8.97
			C375,143.41,371.41,146.82,370.51,152.37z"/>
		<path class="st2" d="M399.33,140.54h3.89v4.78h0.18c1.73-3.65,5.32-5.44,9.57-5.44c5.74,0,10.58,3.17,10.58,11.96v17.88h-4.07
			v-17.34c0-6.58-2.99-8.97-7.35-8.97c-4.78,0-8.73,3.89-8.73,11.12v15.19h-4.06L399.33,140.54L399.33,140.54z"/>
	</g>
</g>
</svg>
